Stretch Black Narrow Cy Sc vv(-6.4-0.0)-(110.0-100.0)-0.0-0.0-(0.0-0.0).ufo
<glyph name="be-cy.sc" format="1">
  <advance width="1178"/>
  <outline>
    <contour>
      <point x="563" y="-144" type="move" name="mark0"/>
    </contour>
    <contour>
      <point x="504" y="748" type="curve"/>
      <point x="504" y="1155" type="line"/>
      <point x="789" y="1135" type="line"/>
      <point x="840" y="925" type="line"/>
      <point x="1023" y="925" type="line"/>
      <point x="1004" y="1292" type="line"/>
      <point x="49" y="1292" type="line"/>
      <point x="49" y="1158" type="line"/>
      <point x="178" y="1133" type="line"/>
      <point x="178" y="145" type="line"/>
      <point x="49" y="126" type="line"/>
      <point x="49" y="0" type="line"/>
      <point x="351" y="0" type="line" smooth="yes"/>
      <point x="421" y="0"/>
      <point x="673" y="-14"/>
      <point x="711" y="-14" type="curve" smooth="yes"/>
      <point x="962" y="-14"/>
      <point x="1137" y="133"/>
      <point x="1137" y="391" type="curve" smooth="yes"/>
      <point x="1137" y="640"/>
      <point x="1000" y="754"/>
      <point x="705" y="754" type="curve" smooth="yes"/>
      <point x="681" y="754"/>
      <point x="515" y="750"/>
    </contour>
    <contour>
      <point x="504" y="133" type="curve"/>
      <point x="504" y="620" type="line"/>
      <point x="510" y="620"/>
      <point x="589" y="624"/>
      <point x="610" y="624" type="curve" smooth="yes"/>
      <point x="744" y="624"/>
      <point x="803" y="553"/>
      <point x="803" y="373" type="curve" smooth="yes"/>
      <point x="803" y="241"/>
      <point x="765" y="117"/>
      <point x="593" y="117" type="curve" smooth="yes"/>
      <point x="542" y="117"/>
      <point x="519" y="127"/>
    </contour>
  </outline>
</glyph>
<glyph name="cheabkhasian-cy.sc" format="1">
  <advance width="1401"/>
  <outline>
    <contour>
      <point x="1299" y="46" type="curve"/>
      <point x="1299" y="340" type="line"/>
      <point x="1086" y="352" type="line"/>
      <point x="1058" y="240" type="line"/>
      <point x="1027" y="170"/>
      <point x="1002" y="108"/>
      <point x="877" y="108" type="curve" smooth="yes"/>
      <point x="727" y="108"/>
      <point x="645" y="300"/>
      <point x="630" y="572" type="curve"/>
      <point x="1339" y="570" type="line"/>
      <point x="1348" y="614"/>
      <point x="1356" y="724"/>
      <point x="1356" y="802" type="curve" smooth="yes"/>
      <point x="1348" y="1164"/>
      <point x="1117" y="1306"/>
      <point x="876" y="1306" type="curve" smooth="yes"/>
      <point x="603" y="1306"/>
      <point x="346" y="1104"/>
      <point x="308" y="726" type="curve"/>
      <point x="206" y="728"/>
      <point x="223" y="776"/>
      <point x="223" y="816" type="curve" smooth="yes"/>
      <point x="223" y="842"/>
      <point x="256" y="928"/>
      <point x="270" y="946" type="curve"/>
      <point x="112" y="972" type="line"/>
      <point x="93" y="960"/>
      <point x="22" y="892"/>
      <point x="22" y="772" type="curve" smooth="yes"/>
      <point x="22" y="644"/>
      <point x="158" y="580"/>
      <point x="305" y="580" type="curve"/>
      <point x="321" y="180"/>
      <point x="551" y="-20"/>
      <point x="852" y="-20" type="curve" smooth="yes"/>
      <point x="1080" y="-20"/>
      <point x="1209" y="44"/>
    </contour>
    <contour>
      <point x="1037" y="726" type="curve"/>
      <point x="626" y="726" type="line"/>
      <point x="632" y="1018"/>
      <point x="701" y="1150"/>
      <point x="840" y="1150" type="curve" smooth="yes"/>
      <point x="1020" y="1150"/>
      <point x="1031" y="928"/>
      <point x="1036" y="780" type="curve" smooth="yes"/>
      <point x="1038" y="764"/>
      <point x="1036" y="744"/>
    </contour>
  </outline>
</glyph>
<glyph name="chedieresis-cy.sc" format="1">
  <advance width="1243"/>
  <outline>
    <contour>
      <point x="812" y="1462" type="curve"/>
      <point x="935" y="1462"/>
      <point x="970" y="1544"/>
      <point x="970" y="1649" type="curve" smooth="yes"/>
      <point x="970" y="1732"/>
      <point x="931" y="1807"/>
      <point x="830" y="1807" type="curve" smooth="yes"/>
      <point x="721" y="1807"/>
      <point x="676" y="1724"/>
      <point x="676" y="1620" type="curve" smooth="yes"/>
      <point x="676" y="1544"/>
      <point x="719" y="1462"/>
    </contour>
    <contour>
      <point x="380" y="1462" type="curve" smooth="yes"/>
      <point x="502" y="1462"/>
      <point x="538" y="1544"/>
      <point x="538" y="1649" type="curve" smooth="yes"/>
      <point x="538" y="1732"/>
      <point x="500" y="1807"/>
      <point x="397" y="1807" type="curve"/>
      <point x="289" y="1807"/>
      <point x="244" y="1724"/>
      <point x="244" y="1620" type="curve" smooth="yes"/>
      <point x="244" y="1535"/>
      <point x="289" y="1462"/>
    </contour>
    <contour>
      <point x="752" y="528" type="curve"/>
      <point x="752" y="147" type="line"/>
      <point x="577" y="126" type="line"/>
      <point x="577" y="0" type="line"/>
      <point x="1199" y="0" type="line"/>
      <point x="1199" y="124" type="line"/>
      <point x="1080" y="147" type="line"/>
      <point x="1080" y="1133" type="line"/>
      <point x="1198" y="1158" type="line"/>
      <point x="1198" y="1292" type="line"/>
      <point x="633" y="1292" type="line"/>
      <point x="633" y="1158" type="line"/>
      <point x="752" y="1134" type="line"/>
      <point x="752" y="681" type="line"/>
      <point x="723" y="651"/>
      <point x="665" y="630"/>
      <point x="594" y="630" type="curve" smooth="yes"/>
      <point x="461" y="630"/>
      <point x="438" y="689"/>
      <point x="438" y="913" type="curve" smooth="yes"/>
      <point x="438" y="1134" type="line"/>
      <point x="537" y="1158" type="line"/>
      <point x="537" y="1292" type="line"/>
      <point x="22" y="1292" type="line"/>
      <point x="22" y="1158" type="line"/>
      <point x="110" y="1132" type="line"/>
      <point x="110" y="844" type="line" smooth="yes"/>
      <point x="110" y="568"/>
      <point x="210" y="454"/>
      <point x="478" y="454" type="curve" smooth="yes"/>
      <point x="567" y="454"/>
      <point x="677" y="476"/>
    </contour>
  </outline>
</glyph>
<glyph name="de-cy.sc" format="1">
  <advance width="1293"/>
  <outline>
    <contour>
      <point x="1237" y="147" type="curve"/>
      <point x="1076" y="147" type="line"/>
      <point x="1076" y="1133" type="line"/>
      <point x="1233" y="1158" type="line"/>
      <point x="1233" y="1292" type="line"/>
      <point x="173" y="1292" type="line"/>
      <point x="173" y="1158" type="line"/>
      <point x="343" y="1133" type="line"/>
      <point x="343" y="1078" type="line" smooth="yes"/>
      <point x="343" y="537"/>
      <point x="222" y="254"/>
      <point x="157" y="147" type="curve"/>
      <point x="41" y="147" type="line"/>
      <point x="31" y="-17"/>
      <point x="32" y="-296"/>
      <point x="29" y="-370" type="curve"/>
      <point x="205" y="-370" type="line"/>
      <point x="214" y="-282"/>
      <point x="263" y="-37"/>
      <point x="296" y="0" type="curve"/>
      <point x="968" y="0" type="line"/>
      <point x="991" y="-35"/>
      <point x="1040" y="-303"/>
      <point x="1042" y="-366" type="curve"/>
      <point x="1211" y="-366" type="line"/>
      <point x="1219" y="-334"/>
      <point x="1237" y="11"/>
    </contour>
    <contour>
      <point x="489" y="1068" type="curve"/>
      <point x="489" y="1152" type="line"/>
      <point x="751" y="1152" type="line"/>
      <point x="752" y="147" type="line"/>
      <point x="353" y="147" type="line"/>
      <point x="405" y="269"/>
      <point x="489" y="565"/>
    </contour>
  </outline>
</glyph>
<glyph name="dje-cy.sc" format="1">
  <advance width="1489"/>
  <outline>
    <contour>
      <point x="551" y="-144" type="move" name="mark0"/>
    </contour>
    <contour>
      <point x="770" y="681" type="curve"/>
      <point x="770" y="1156" type="line"/>
      <point x="1004" y="1134" type="line"/>
      <point x="1060" y="871" type="line"/>
      <point x="1233" y="871" type="line"/>
      <point x="1206" y="1292" type="line"/>
      <point x="59" y="1292" type="line"/>
      <point x="35" y="871" type="line"/>
      <point x="205" y="871" type="line"/>
      <point x="257" y="1134" type="line"/>
      <point x="443" y="1156" type="line"/>
      <point x="443" y="156" type="line"/>
      <point x="209" y="132" type="line"/>
      <point x="209" y="0" type="line"/>
      <point x="989" y="0" type="line"/>
      <point x="989" y="132" type="line"/>
      <point x="770" y="156" type="line"/>
      <point x="770" y="531" type="line"/>
      <point x="803" y="563"/>
      <point x="869" y="591"/>
      <point x="952" y="591" type="curve" smooth="yes"/>
      <point x="1079" y="591"/>
      <point x="1127" y="494"/>
      <point x="1127" y="245" type="curve" smooth="yes"/>
      <point x="1127" y="-51"/>
      <point x="1062" y="-208"/>
      <point x="940" y="-208" type="curve" smooth="yes"/>
      <point x="849" y="-208"/>
      <point x="825" y="-195"/>
      <point x="807" y="-188" type="curve"/>
      <point x="821" y="-329" type="line"/>
      <point x="847" y="-340"/>
      <point x="902" y="-361"/>
      <point x="990" y="-361" type="curve" smooth="yes"/>
      <point x="1265" y="-361"/>
      <point x="1462" y="-116"/>
      <point x="1462" y="294" type="curve" smooth="yes"/>
      <point x="1462" y="644"/>
      <point x="1285" y="751"/>
      <point x="1028" y="751" type="curve" smooth="yes"/>
      <point x="939" y="751"/>
      <point x="810" y="707"/>
    </contour>
  </outline>
</glyph>
<glyph name="dzhe-cy.sc" format="1">
  <advance width="1361"/>
  <outline>
    <contour>
      <point x="822" y="0" type="curve"/>
      <point x="1314" y="0" type="line"/>
      <point x="1314" y="126" type="line"/>
      <point x="1192" y="145" type="line"/>
      <point x="1192" y="1133" type="line"/>
      <point x="1311" y="1158" type="line"/>
      <point x="1311" y="1292" type="line"/>
      <point x="731" y="1292" type="line"/>
      <point x="731" y="1158" type="line"/>
      <point x="868" y="1133" type="line"/>
      <point x="868" y="132" type="line"/>
      <point x="496" y="132" type="line"/>
      <point x="496" y="1133" type="line"/>
      <point x="629" y="1158" type="line"/>
      <point x="629" y="1292" type="line"/>
      <point x="51" y="1292" type="line"/>
      <point x="51" y="1158" type="line"/>
      <point x="169" y="1133" type="line"/>
      <point x="169" y="147" type="line"/>
      <point x="49" y="126" type="line"/>
      <point x="49" y="0" type="line"/>
      <point x="536" y="0" type="line"/>
      <point x="550" y="-22"/>
      <point x="588" y="-253"/>
      <point x="588" y="-370" type="curve"/>
      <point x="774" y="-370" type="line"/>
      <point x="774" y="-248"/>
      <point x="804" y="-26"/>
    </contour>
  </outline>
</glyph>
<glyph name="eltail-cy.sc" format="1">
  <advance width="1315"/>
  <outline>
    <contour>
      <point x="522" y="-144" type="move" name="mark0"/>
    </contour>
    <contour>
      <point x="1269" y="0" type="curve"/>
      <point x="1269" y="143" type="line"/>
      <point x="1104" y="143" type="line"/>
      <point x="1104" y="1133" type="line"/>
      <point x="1252" y="1158" type="line"/>
      <point x="1252" y="1292" type="line"/>
      <point x="153" y="1292" type="line"/>
      <point x="153" y="1158" type="line"/>
      <point x="362" y="1133" type="line"/>
      <point x="362" y="1072" type="line" smooth="yes"/>
      <point x="362" y="589"/>
      <point x="324" y="370"/>
      <point x="273" y="245" type="curve"/>
      <point x="247" y="185"/>
      <point x="222" y="167"/>
      <point x="172" y="167" type="curve" smooth="yes"/>
      <point x="115" y="167"/>
      <point x="86" y="171"/>
      <point x="43" y="173" type="curve"/>
      <point x="64" y="0" type="line"/>
      <point x="101" y="-8"/>
      <point x="146" y="-13"/>
      <point x="202" y="-13" type="curve" smooth="yes"/>
      <point x="288" y="-13"/>
      <point x="349" y="34"/>
      <point x="392" y="127" type="curve" smooth="yes"/>
      <point x="473" y="299"/>
      <point x="505" y="677"/>
      <point x="505" y="1019" type="curve" smooth="yes"/>
      <point x="505" y="1131" type="line"/>
      <point x="781" y="1131" type="line"/>
      <point x="783" y="147" type="line"/>
      <point x="610" y="126" type="line"/>
      <point x="610" y="0" type="line"/>
      <point x="1024" y="0" type="line"/>
      <point x="1007" y="-61"/>
      <point x="956" y="-260"/>
      <point x="911" y="-370" type="curve"/>
      <point x="1079" y="-370" type="line"/>
      <point x="1110" y="-325"/>
      <point x="1214" y="-102"/>
    </contour>
  </outline>
</glyph>
<glyph name="enhook-cy.sc" format="1">
  <advance width="1346"/>
  <outline>
    <contour>
      <point x="655" y="-144" type="move" name="mark0"/>
    </contour>
    <contour>
      <point x="1206" y="481" type="curve" smooth="yes"/>
      <point x="1206" y="1133" type="line"/>
      <point x="1321" y="1158" type="line"/>
      <point x="1321" y="1292" type="line"/>
      <point x="761" y="1292" type="line"/>
      <point x="761" y="1158" type="line"/>
      <point x="880" y="1133" type="line"/>
      <point x="880" y="739" type="line"/>
      <point x="496" y="739" type="line"/>
      <point x="496" y="1134" type="line"/>
      <point x="625" y="1158" type="line"/>
      <point x="625" y="1292" type="line"/>
      <point x="59" y="1292" type="line"/>
      <point x="59" y="1158" type="line"/>
      <point x="168" y="1134" type="line"/>
      <point x="168" y="145" type="line"/>
      <point x="57" y="126" type="line"/>
      <point x="57" y="0" type="line"/>
      <point x="626" y="0" type="line"/>
      <point x="626" y="126" type="line"/>
      <point x="496" y="145" type="line"/>
      <point x="496" y="574" type="line"/>
      <point x="880" y="574" type="line"/>
      <point x="880" y="304" type="line" smooth="yes"/>
      <point x="880" y="127"/>
      <point x="868" y="29"/>
      <point x="851" y="-34" type="curve"/>
      <point x="806" y="-163"/>
      <point x="727" y="-224"/>
      <point x="645" y="-259" type="curve"/>
      <point x="715" y="-371" type="line"/>
      <point x="999" y="-312"/>
      <point x="1129" y="-155"/>
      <point x="1178" y="-3" type="curve"/>
      <point x="1200" y="69"/>
      <point x="1206" y="190"/>
    </contour>
  </outline>
</glyph>
<glyph name="ereversed-cy.sc" format="1">
  <advance width="1125"/>
  <outline>
    <contour>
      <point x="548" y="1286" type="move" name="top"/>
    </contour>
    <contour>
      <point x="64" y="1240" type="curve"/>
      <point x="77" y="916" type="line"/>
      <point x="264" y="920" type="line"/>
      <point x="323" y="1118" type="line"/>
      <point x="341" y="1142"/>
      <point x="384" y="1174"/>
      <point x="474" y="1174" type="curve" smooth="yes"/>
      <point x="615" y="1174"/>
      <point x="697" y="992"/>
      <point x="719" y="744" type="curve"/>
      <point x="292" y="756" type="line"/>
      <point x="292" y="570" type="line"/>
      <point x="725" y="580" type="line"/>
      <point x="719" y="256"/>
      <point x="623" y="108"/>
      <point x="460" y="108" type="curve" smooth="yes"/>
      <point x="387" y="108"/>
      <point x="363" y="138"/>
      <point x="348" y="164" type="curve"/>
      <point x="293" y="394" type="line"/>
      <point x="79" y="386" type="line"/>
      <point x="74" y="38" type="line"/>
      <point x="164" y="36"/>
      <point x="267" y="-20"/>
      <point x="443" y="-20" type="curve" smooth="yes"/>
      <point x="848" y="-20"/>
      <point x="1085" y="226"/>
      <point x="1085" y="652" type="curve" smooth="yes"/>
      <point x="1085" y="1038"/>
      <point x="891" y="1306"/>
      <point x="504" y="1306" type="curve" smooth="yes"/>
      <point x="272" y="1306"/>
      <point x="160" y="1246"/>
    </contour>
  </outline>
</glyph>
<glyph name="gedescender-cy.sc" format="1">
  <advance width="1010"/>
  <outline>
    <contour>
      <point x="547" y="-144" type="move" name="mark0"/>
    </contour>
    <contour>
      <point x="835" y="147" type="curve"/>
      <point x="546" y="147" type="line"/>
      <point x="546" y="1155" type="line"/>
      <point x="765" y="1132" type="line"/>
      <point x="836" y="761" type="line"/>
      <point x="1012" y="761" type="line"/>
      <point x="982" y="1292" type="line"/>
      <point x="48" y="1292" type="line"/>
      <point x="48" y="1159" type="line"/>
      <point x="221" y="1132" type="line"/>
      <point x="221" y="147" type="line"/>
      <point x="46" y="127" type="line"/>
      <point x="46" y="0" type="line"/>
      <point x="566" y="0" type="line"/>
      <point x="592" y="-54"/>
      <point x="626" y="-299"/>
      <point x="626" y="-366" type="curve"/>
      <point x="793" y="-366" type="line"/>
      <point x="803" y="-333"/>
      <point x="835" y="13"/>
    </contour>
  </outline>
</glyph>
<glyph name="gestrokehook-cy.sc" format="1">
  <advance width="1011"/>
  <outline>
    <contour>
      <point x="787" y="127" type="curve"/>
      <point x="546" y="147" type="line"/>
      <point x="546" y="512" type="line"/>
      <point x="739" y="512" type="line"/>
      <point x="739" y="653" type="line"/>
      <point x="546" y="653" type="line"/>
      <point x="546" y="1155" type="line"/>
      <point x="765" y="1132" type="line"/>
      <point x="830" y="761" type="line"/>
      <point x="1012" y="761" type="line"/>
      <point x="982" y="1292" type="line"/>
      <point x="48" y="1292" type="line"/>
      <point x="48" y="1159" type="line"/>
      <point x="221" y="1132" type="line"/>
      <point x="221" y="653" type="line"/>
      <point x="77" y="653" type="line"/>
      <point x="77" y="512" type="line"/>
      <point x="221" y="512" type="line"/>
      <point x="221" y="147" type="line"/>
      <point x="46" y="127" type="line"/>
      <point x="46" y="0" type="line"/>
      <point x="680" y="0" type="line"/>
      <point x="686" y="-38"/>
      <point x="692" y="-85"/>
      <point x="692" y="-131" type="curve" smooth="yes"/>
      <point x="692" y="-239"/>
      <point x="654" y="-264"/>
      <point x="584" y="-264" type="curve" smooth="yes"/>
      <point x="572" y="-264"/>
      <point x="537" y="-260"/>
      <point x="517" y="-253" type="curve"/>
      <point x="517" y="-432" type="line"/>
      <point x="545" y="-445"/>
      <point x="598" y="-457"/>
      <point x="632" y="-457" type="curve" smooth="yes"/>
      <point x="787" y="-457"/>
      <point x="891" y="-395"/>
      <point x="891" y="-195" type="curve" smooth="yes"/>
      <point x="891" y="-119"/>
      <point x="866" y="-10"/>
    </contour>
  </outline>
</glyph>
<glyph name="ghemiddlehook-cy.sc" format="1">
  <advance width="1269"/>
  <outline>
    <contour>
      <point x="550" y="681" type="curve"/>
      <point x="550" y="1156" type="line"/>
      <point x="776" y="1134" type="line"/>
      <point x="831" y="916" type="line"/>
      <point x="1013" y="916" type="line"/>
      <point x="994" y="1292" type="line"/>
      <point x="53" y="1292" type="line"/>
      <point x="53" y="1159" type="line"/>
      <point x="223" y="1132" type="line"/>
      <point x="223" y="147" type="line"/>
      <point x="49" y="126" type="line"/>
      <point x="49" y="0" type="line"/>
      <point x="764" y="0" type="line"/>
      <point x="764" y="126" type="line"/>
      <point x="550" y="147" type="line"/>
      <point x="550" y="533" type="line"/>
      <point x="584" y="563"/>
      <point x="651" y="591"/>
      <point x="734" y="591" type="curve" smooth="yes"/>
      <point x="858" y="591"/>
      <point x="908" y="494"/>
      <point x="908" y="245" type="curve" smooth="yes"/>
      <point x="908" y="-51"/>
      <point x="844" y="-208"/>
      <point x="721" y="-208" type="curve" smooth="yes"/>
      <point x="630" y="-208"/>
      <point x="606" y="-195"/>
      <point x="587" y="-188" type="curve"/>
      <point x="601" y="-329" type="line"/>
      <point x="628" y="-340"/>
      <point x="682" y="-361"/>
      <point x="771" y="-361" type="curve" smooth="yes"/>
      <point x="1044" y="-361"/>
      <point x="1242" y="-119"/>
      <point x="1242" y="290" type="curve" smooth="yes"/>
      <point x="1242" y="644"/>
      <point x="1066" y="751"/>
      <point x="809" y="751" type="curve" smooth="yes"/>
      <point x="719" y="751"/>
      <point x="590" y="707"/>
    </contour>
  </outline>
</glyph>
<glyph name="ghestroke-cy.sc" format="1">
  <advance width="1011"/>
  <outline>
    <contour>
      <point x="48" y="1292" type="line"/>
      <point x="48" y="1159" type="line"/>
      <point x="221" y="1132" type="line"/>
      <point x="221" y="653" type="line"/>
      <point x="77" y="653" type="line"/>
      <point x="77" y="512" type="line"/>
      <point x="221" y="512" type="line"/>
      <point x="221" y="147" type="line"/>
      <point x="46" y="127" type="line"/>
      <point x="46" y="0" type="line"/>
      <point x="790" y="0" type="line"/>
      <point x="790" y="127" type="line"/>
      <point x="546" y="147" type="line"/>
      <point x="546" y="512" type="line"/>
      <point x="739" y="512" type="line"/>
      <point x="739" y="653" type="line"/>
      <point x="546" y="653" type="line"/>
      <point x="546" y="1155" type="line"/>
      <point x="765" y="1132" type="line"/>
      <point x="830" y="761" type="line"/>
      <point x="1012" y="761" type="line"/>
      <point x="982" y="1292" type="line"/>
    </contour>
  </outline>
</glyph>
<glyph name="gheupturn-cy.sc" format="1">
  <advance width="968"/>
  <outline>
    <contour>
      <point x="537" y="-144" type="move" name="mark0"/>
    </contour>
    <contour>
      <point x="788" y="1598" type="line"/>
      <point x="718" y="1292" type="line"/>
      <point x="48" y="1292" type="line"/>
      <point x="48" y="1158" type="line"/>
      <point x="210" y="1134" type="line"/>
      <point x="210" y="146" type="line"/>
      <point x="47" y="128" type="line"/>
      <point x="47" y="0" type="line"/>
      <point x="780" y="0" type="line"/>
      <point x="780" y="128" type="line"/>
      <point x="537" y="146" type="line"/>
      <point x="537" y="1148" type="line"/>
      <point x="927" y="1134" type="line"/>
      <point x="940" y="1598" type="line"/>
    </contour>
  </outline>
</glyph>
<glyph name="haabkhasian-cy.sc" format="1">
  <advance width="1503"/>
  <outline>
    <contour>
      <point x="788" y="1173" type="curve"/>
      <point x="805" y="1299" type="line"/>
      <point x="776" y="1303"/>
      <point x="716" y="1311"/>
      <point x="680" y="1311" type="curve" smooth="yes"/>
      <point x="297" y="1311"/>
      <point x="40" y="1076"/>
      <point x="40" y="634" type="curve" smooth="yes"/>
      <point x="40" y="264"/>
      <point x="200" y="-20"/>
      <point x="644" y="-20" type="curve" smooth="yes"/>
      <point x="742" y="-20"/>
      <point x="852" y="1"/>
      <point x="925" y="41" type="curve"/>
      <point x="1012" y="0"/>
      <point x="1115" y="-20"/>
      <point x="1224" y="-20" type="curve" smooth="yes"/>
      <point x="1324" y="-20"/>
      <point x="1403" y="1"/>
      <point x="1474" y="50" type="curve"/>
      <point x="1439" y="151" type="line"/>
      <point x="1392" y="119"/>
      <point x="1331" y="108"/>
      <point x="1273" y="108" type="curve" smooth="yes"/>
      <point x="1217" y="108"/>
      <point x="1163" y="115"/>
      <point x="1112" y="134" type="curve"/>
      <point x="1218" y="204"/>
      <point x="1368" y="348"/>
      <point x="1368" y="602" type="curve" smooth="yes"/>
      <point x="1368" y="967"/>
      <point x="1145" y="1054"/>
      <point x="957" y="1054" type="curve" smooth="yes"/>
      <point x="762" y="1054"/>
      <point x="559" y="938"/>
      <point x="559" y="567" type="curve" smooth="yes"/>
      <point x="559" y="346"/>
      <point x="653" y="186"/>
      <point x="793" y="118" type="curve"/>
      <point x="761" y="111"/>
      <point x="732" y="108"/>
      <point x="701" y="108" type="curve" smooth="yes"/>
      <point x="539" y="108"/>
      <point x="385" y="226"/>
      <point x="385" y="636" type="curve" smooth="yes"/>
      <point x="385" y="1073"/>
      <point x="556" y="1180"/>
      <point x="715" y="1180" type="curve" smooth="yes"/>
      <point x="740" y="1180"/>
      <point x="766" y="1176"/>
    </contour>
    <contour>
      <point x="957" y="929" type="curve" smooth="yes"/>
      <point x="1041" y="929"/>
      <point x="1059" y="828"/>
      <point x="1059" y="600" type="curve" smooth="yes"/>
      <point x="1059" y="380"/>
      <point x="1032" y="254"/>
      <point x="977" y="211" type="curve"/>
      <point x="889" y="282"/>
      <point x="847" y="420"/>
      <point x="847" y="607" type="curve" smooth="yes"/>
      <point x="847" y="789"/>
      <point x="870" y="929"/>
    </contour>
  </outline>
</glyph>
<glyph name="hadescender-cy.sc" format="1">
  <advance width="1220"/>
  <outline>
    <contour>
      <point x="603" y="-144" type="move" name="mark0"/>
    </contour>
    <contour>
      <point x="1231" y="147" type="curve"/>
      <point x="1090" y="147" type="line"/>
      <point x="748" y="699" type="line"/>
      <point x="1043" y="1132" type="line"/>
      <point x="1177" y="1158" type="line"/>
      <point x="1177" y="1292" type="line"/>
      <point x="736" y="1292" type="line"/>
      <point x="736" y="1158" type="line"/>
      <point x="869" y="1133" type="line"/>
      <point x="676" y="795" type="line"/>
      <point x="496" y="1131" type="line"/>
      <point x="609" y="1158" type="line"/>
      <point x="609" y="1292" type="line"/>
      <point x="15" y="1292" type="line"/>
      <point x="15" y="1158" type="line"/>
      <point x="116" y="1132" type="line"/>
      <point x="437" y="613" type="line"/>
      <point x="143" y="145" type="line"/>
      <point x="12" y="126" type="line"/>
      <point x="12" y="0" type="line"/>
      <point x="468" y="0" type="line"/>
      <point x="468" y="126" type="line"/>
      <point x="324" y="145" type="line"/>
      <point x="514" y="512" type="line"/>
      <point x="712" y="147" type="line"/>
      <point x="596" y="126" type="line"/>
      <point x="596" y="0" type="line"/>
      <point x="963" y="0" type="line"/>
      <point x="988" y="-52"/>
      <point x="1021" y="-308"/>
      <point x="1022" y="-364" type="curve"/>
      <point x="1189" y="-364" type="line"/>
      <point x="1199" y="-337"/>
      <point x="1231" y="15"/>
    </contour>
  </outline>
</glyph>
<glyph name="hahook-cy.sc" format="1">
  <advance width="1189"/>
  <outline>
    <contour>
      <point x="766" y="729" type="curve"/>
      <point x="1043" y="1132" type="line"/>
      <point x="1177" y="1158" type="line"/>
      <point x="1177" y="1292" type="line"/>
      <point x="736" y="1292" type="line"/>
      <point x="736" y="1158" type="line"/>
      <point x="869" y="1133" type="line"/>
      <point x="685" y="821" type="line"/>
      <point x="496" y="1131" type="line"/>
      <point x="609" y="1158" type="line"/>
      <point x="609" y="1292" type="line"/>
      <point x="15" y="1292" type="line"/>
      <point x="15" y="1158" type="line"/>
      <point x="116" y="1132" type="line"/>
      <point x="447" y="638" type="line"/>
      <point x="143" y="145" type="line"/>
      <point x="12" y="126" type="line"/>
      <point x="12" y="0" type="line"/>
      <point x="468" y="0" type="line"/>
      <point x="468" y="126" type="line"/>
      <point x="324" y="145" type="line"/>
      <point x="532" y="540" type="line"/>
      <point x="651" y="334"/>
      <point x="806" y="132"/>
      <point x="806" y="-42" type="curve" smooth="yes"/>
      <point x="806" y="-127"/>
      <point x="796" y="-203"/>
      <point x="680" y="-273" type="curve"/>
      <point x="775" y="-360" type="line"/>
      <point x="943" y="-292"/>
      <point x="1103" y="-131"/>
      <point x="1103" y="70" type="curve" smooth="yes"/>
      <point x="1103" y="299"/>
      <point x="894" y="536"/>
    </contour>
  </outline>
</glyph>
<glyph name="hardsign-cy.sc" format="1">
  <advance width="1429"/>
  <outline>
    <contour>
      <point x="714" y="-144" type="move" name="mark0"/>
    </contour>
    <contour>
      <point x="976" y="760" type="curve" smooth="yes"/>
      <point x="778" y="760" type="line"/>
      <point x="778" y="1133" type="line"/>
      <point x="968" y="1165" type="line"/>
      <point x="968" y="1292" type="line"/>
      <point x="64" y="1292" type="line"/>
      <point x="34" y="750" type="line"/>
      <point x="217" y="750" type="line"/>
      <point x="282" y="1134" type="line"/>
      <point x="452" y="1156" type="line"/>
      <point x="452" y="147" type="line"/>
      <point x="208" y="127" type="line"/>
      <point x="208" y="0" type="line"/>
      <point x="627" y="0" type="line" smooth="yes"/>
      <point x="694" y="0"/>
      <point x="939" y="-14"/>
      <point x="977" y="-14" type="curve" smooth="yes"/>
      <point x="1246" y="-14"/>
      <point x="1402" y="137"/>
      <point x="1402" y="397" type="curve" smooth="yes"/>
      <point x="1402" y="626"/>
      <point x="1277" y="760"/>
    </contour>
    <contour>
      <point x="778" y="132" type="curve"/>
      <point x="778" y="619" type="line"/>
      <point x="888" y="619" type="line" smooth="yes"/>
      <point x="996" y="619"/>
      <point x="1066" y="565"/>
      <point x="1066" y="373" type="curve" smooth="yes"/>
      <point x="1066" y="241"/>
      <point x="1027" y="118"/>
      <point x="871" y="118" type="curve" smooth="yes"/>
      <point x="837" y="118"/>
      <point x="803" y="123"/>
    </contour>
  </outline>
</glyph>
<glyph name="ia-cy.sc" format="1">
  <advance width="1215"/>
  <outline>
    <contour>
      <point x="719" y="543" type="curve"/>
      <point x="719" y="145" type="line"/>
      <point x="582" y="127" type="line"/>
      <point x="582" y="0" type="line"/>
      <point x="1171" y="0" type="line"/>
      <point x="1171" y="127" type="line"/>
      <point x="1045" y="145" type="line"/>
      <point x="1045" y="1133" type="line"/>
      <point x="1163" y="1158" type="line"/>
      <point x="1163" y="1292" type="line"/>
      <point x="889" y="1292" type="line" smooth="yes"/>
      <point x="779" y="1292"/>
      <point x="723" y="1303"/>
      <point x="585" y="1303" type="curve" smooth="yes"/>
      <point x="233" y="1303"/>
      <point x="118" y="1183"/>
      <point x="118" y="951" type="curve" smooth="yes"/>
      <point x="118" y="804"/>
      <point x="194" y="646"/>
      <point x="359" y="604" type="curve"/>
      <point x="151" y="530"/>
      <point x="142" y="171"/>
      <point x="59" y="145" type="curve"/>
      <point x="5" y="127" type="line"/>
      <point x="5" y="0" type="line"/>
      <point x="359" y="0" type="line" smooth="yes"/>
      <point x="422" y="0"/>
      <point x="463" y="478"/>
      <point x="576" y="544" type="curve"/>
      <point x="664" y="541"/>
      <point x="695" y="541"/>
    </contour>
    <contour>
      <point x="719" y="1171" type="curve"/>
      <point x="719" y="671" type="line"/>
      <point x="704" y="664"/>
      <point x="657" y="664"/>
      <point x="637" y="664" type="curve" smooth="yes"/>
      <point x="522" y="664"/>
      <point x="462" y="752"/>
      <point x="462" y="948" type="curve" smooth="yes"/>
      <point x="462" y="1125"/>
      <point x="531" y="1178"/>
      <point x="634" y="1178" type="curve" smooth="yes"/>
      <point x="684" y="1178"/>
      <point x="705" y="1175"/>
    </contour>
  </outline>
</glyph>
<glyph name="iishort-cy.sc" format="1">
  <advance width="1402"/>
  <outline>
    <contour>
      <point x="563" y="1839" type="curve" smooth="yes"/>
      <point x="340" y="1839" type="line"/>
      <point x="340" y="1822"/>
      <point x="338" y="1806"/>
      <point x="338" y="1789" type="curve" smooth="yes"/>
      <point x="338" y="1593"/>
      <point x="486" y="1457"/>
      <point x="710" y="1457" type="curve" smooth="yes"/>
      <point x="945" y="1457"/>
      <point x="1082" y="1592"/>
      <point x="1082" y="1789" type="curve" smooth="yes"/>
      <point x="1082" y="1800"/>
      <point x="1083" y="1828"/>
      <point x="1081" y="1839" type="curve"/>
      <point x="858" y="1839" type="line" smooth="yes"/>
      <point x="833" y="1839"/>
      <point x="828" y="1785"/>
      <point x="828" y="1750" type="curve" smooth="yes"/>
      <point x="828" y="1668"/>
      <point x="785" y="1583"/>
      <point x="712" y="1583" type="curve" smooth="yes"/>
      <point x="635" y="1583"/>
      <point x="591" y="1668"/>
      <point x="591" y="1750" type="curve" smooth="yes"/>
      <point x="591" y="1785"/>
      <point x="588" y="1839"/>
    </contour>
    <contour>
      <point x="56" y="1292" type="line"/>
      <point x="56" y="1158" type="line"/>
      <point x="165" y="1134" type="line"/>
      <point x="165" y="144" type="line"/>
      <point x="56" y="126" type="line"/>
      <point x="56" y="0" type="line"/>
      <point x="618" y="0" type="line"/>
      <point x="618" y="126" type="line"/>
      <point x="492" y="146" type="line"/>
      <point x="492" y="190" type="line"/>
      <point x="841" y="713" type="line"/>
      <point x="907" y="884" type="line"/>
      <point x="907" y="147" type="line"/>
      <point x="791" y="126" type="line"/>
      <point x="791" y="0" type="line"/>
      <point x="1341" y="0" type="line"/>
      <point x="1341" y="126" type="line"/>
      <point x="1232" y="147" type="line"/>
      <point x="1232" y="1133" type="line"/>
      <point x="1341" y="1158" type="line"/>
      <point x="1341" y="1292" type="line"/>
      <point x="791" y="1292" type="line"/>
      <point x="791" y="1158" type="line"/>
      <point x="907" y="1133" type="line"/>
      <point x="907" y="1098" type="line"/>
      <point x="568" y="572" type="line"/>
      <point x="492" y="404" type="line"/>
      <point x="492" y="1132" type="line"/>
      <point x="615" y="1160" type="line"/>
      <point x="615" y="1292" type="line"/>
    </contour>
  </outline>
</glyph>
<glyph name="iishorttail-cy.sc" format="1">
  <advance width="1402"/>
  <outline>
    <contour>
      <point x="1232" y="0" type="move" name="bottomright"/>
    </contour>
    <contour>
      <point x="1360" y="0" type="curve"/>
      <point x="1360" y="144" type="line"/>
      <point x="1196" y="144" type="line"/>
      <point x="1109" y="0" type="line"/>
      <point x="1115" y="0" type="line"/>
      <point x="1096" y="-70"/>
      <point x="1056" y="-240"/>
      <point x="1002" y="-370" type="curve"/>
      <point x="1170" y="-370" type="line"/>
      <point x="1208" y="-314"/>
      <point x="1306" y="-102"/>
    </contour>
    <contour>
      <point x="551" y="1825" type="curve" smooth="yes"/>
      <point x="328" y="1825" type="line"/>
      <point x="328" y="1808"/>
      <point x="327" y="1792"/>
      <point x="327" y="1775" type="curve" smooth="yes"/>
      <point x="327" y="1579"/>
      <point x="475" y="1443"/>
      <point x="699" y="1443" type="curve" smooth="yes"/>
      <point x="934" y="1443"/>
      <point x="1071" y="1578"/>
      <point x="1071" y="1775" type="curve" smooth="yes"/>
      <point x="1071" y="1786"/>
      <point x="1071" y="1814"/>
      <point x="1069" y="1825" type="curve"/>
      <point x="846" y="1825" type="line" smooth="yes"/>
      <point x="821" y="1825"/>
      <point x="817" y="1771"/>
      <point x="817" y="1736" type="curve" smooth="yes"/>
      <point x="817" y="1654"/>
      <point x="774" y="1569"/>
      <point x="701" y="1569" type="curve" smooth="yes"/>
      <point x="624" y="1569"/>
      <point x="580" y="1654"/>
      <point x="580" y="1736" type="curve" smooth="yes"/>
      <point x="580" y="1771"/>
      <point x="576" y="1825"/>
    </contour>
    <contour>
      <point x="56" y="1292" type="line"/>
      <point x="56" y="1158" type="line"/>
      <point x="165" y="1134" type="line"/>
      <point x="165" y="144" type="line"/>
      <point x="56" y="126" type="line"/>
      <point x="56" y="0" type="line"/>
      <point x="618" y="0" type="line"/>
      <point x="618" y="126" type="line"/>
      <point x="492" y="146" type="line"/>
      <point x="492" y="190" type="line"/>
      <point x="841" y="713" type="line"/>
      <point x="907" y="884" type="line"/>
      <point x="907" y="147" type="line"/>
      <point x="791" y="126" type="line"/>
      <point x="791" y="0" type="line"/>
      <point x="1341" y="0" type="line"/>
      <point x="1341" y="126" type="line"/>
      <point x="1232" y="147" type="line"/>
      <point x="1232" y="1133" type="line"/>
      <point x="1341" y="1158" type="line"/>
      <point x="1341" y="1292" type="line"/>
      <point x="791" y="1292" type="line"/>
      <point x="791" y="1158" type="line"/>
      <point x="907" y="1133" type="line"/>
      <point x="907" y="1098" type="line"/>
      <point x="568" y="572" type="line"/>
      <point x="492" y="404" type="line"/>
      <point x="492" y="1132" type="line"/>
      <point x="615" y="1160" type="line"/>
      <point x="615" y="1292" type="line"/>
    </contour>
  </outline>
</glyph>
<glyph name="izhitsa-cy.sc" format="1">
  <advance width="1277"/>
  <outline>
    <contour>
      <point x="896" y="1080" type="curve"/>
      <point x="732" y="400" type="line"/>
      <point x="706" y="264" type="line"/>
      <point x="676" y="402" type="line"/>
      <point x="472" y="1132" type="line"/>
      <point x="601" y="1158" type="line"/>
      <point x="601" y="1292" type="line"/>
      <point x="17" y="1292" type="line"/>
      <point x="17" y="1158" type="line"/>
      <point x="115" y="1132" type="line"/>
      <point x="513" y="-12" type="line"/>
      <point x="779" y="-12" type="line"/>
      <point x="1067" y="912" type="line"/>
      <point x="1109" y="1084"/>
      <point x="1171" y="1146"/>
      <point x="1266" y="1146" type="curve" smooth="yes"/>
      <point x="1266" y="1146"/>
      <point x="1269" y="1146"/>
      <point x="1269" y="1146" type="curve"/>
      <point x="1269" y="1288" type="line"/>
      <point x="1250" y="1296"/>
      <point x="1201" y="1308"/>
      <point x="1109" y="1308" type="curve" smooth="yes"/>
      <point x="1012" y="1308"/>
      <point x="922" y="1248"/>
    </contour>
  </outline>
</glyph>
<glyph name="kabashkir-cy.sc" format="1">
  <advance width="1503"/>
  <outline>
    <contour>
      <point x="849" y="-144" type="move" name="mark0"/>
    </contour>
    <contour>
      <point x="1091" y="718" type="curve"/>
      <point x="1355" y="1133" type="line"/>
      <point x="1490" y="1158" type="line"/>
      <point x="1490" y="1292" type="line"/>
      <point x="1011" y="1292" type="line"/>
      <point x="1011" y="1158" type="line"/>
      <point x="1130" y="1134" type="line"/>
      <point x="916" y="734" type="line"/>
      <point x="787" y="734" type="line"/>
      <point x="787" y="1133" type="line"/>
      <point x="899" y="1158" type="line"/>
      <point x="899" y="1292" type="line"/>
      <point x="59" y="1292" type="line"/>
      <point x="36" y="764" type="line"/>
      <point x="217" y="764" type="line"/>
      <point x="279" y="1134" type="line"/>
      <point x="461" y="1155" type="line"/>
      <point x="461" y="147" type="line"/>
      <point x="333" y="126" type="line"/>
      <point x="333" y="0" type="line"/>
      <point x="930" y="0" type="line"/>
      <point x="930" y="124" type="line"/>
      <point x="787" y="145" type="line"/>
      <point x="787" y="615" type="line"/>
      <point x="814" y="615" type="line" smooth="yes"/>
      <point x="1001" y="615"/>
      <point x="1067" y="0"/>
      <point x="1220" y="0" type="curve"/>
      <point x="1539" y="0" type="line"/>
      <point x="1539" y="126" type="line"/>
      <point x="1465" y="147" type="line" smooth="yes"/>
      <point x="1392" y="176"/>
      <point x="1299" y="627"/>
    </contour>
  </outline>
</glyph>
<glyph name="kahook-cy.sc" format="1">
  <advance width="1237"/>
  <outline>
    <contour>
      <point x="496" y="682" type="curve"/>
      <point x="496" y="1133" type="line"/>
      <point x="607" y="1158" type="line"/>
      <point x="607" y="1292" type="line"/>
      <point x="52" y="1292" type="line"/>
      <point x="52" y="1158" type="line"/>
      <point x="169" y="1133" type="line"/>
      <point x="169" y="147" type="line"/>
      <point x="52" y="126" type="line"/>
      <point x="52" y="0" type="line"/>
      <point x="643" y="0" type="line"/>
      <point x="643" y="124" type="line"/>
      <point x="496" y="147" type="line"/>
      <point x="496" y="532" type="line"/>
      <point x="527" y="562"/>
      <point x="594" y="590"/>
      <point x="679" y="590" type="curve" smooth="yes"/>
      <point x="806" y="590"/>
      <point x="862" y="492"/>
      <point x="862" y="245" type="curve" smooth="yes"/>
      <point x="862" y="-68"/>
      <point x="820" y="-198"/>
      <point x="686" y="-198" type="curve" smooth="yes"/>
      <point x="616" y="-198"/>
      <point x="586" y="-191"/>
      <point x="570" y="-184" type="curve"/>
      <point x="583" y="-331" type="line"/>
      <point x="609" y="-344"/>
      <point x="652" y="-359"/>
      <point x="740" y="-359" type="curve" smooth="yes"/>
      <point x="1013" y="-359"/>
      <point x="1187" y="-124"/>
      <point x="1187" y="294" type="curve" smooth="yes"/>
      <point x="1187" y="616"/>
      <point x="1040" y="732"/>
      <point x="816" y="749" type="curve"/>
      <point x="1062" y="1133" type="line"/>
      <point x="1199" y="1158" type="line"/>
      <point x="1199" y="1292" type="line"/>
      <point x="718" y="1292" type="line"/>
      <point x="718" y="1158" type="line"/>
      <point x="840" y="1133" type="line"/>
      <point x="621" y="730" type="line"/>
      <point x="589" y="721"/>
      <point x="514" y="695"/>
    </contour>
  </outline>
</glyph>
<glyph name="kje-cy.sc" format="1">
  <advance width="1216"/>
  <outline>
    <contour>
      <point x="526" y="1439" type="line"/>
      <point x="633" y="1484"/>
      <point x="830" y="1673"/>
      <point x="893" y="1792" type="curve"/>
      <point x="719" y="1964" type="line"/>
      <point x="417" y="1537" type="line"/>
    </contour>
    <contour>
      <point x="768" y="707" type="curve"/>
      <point x="1049" y="1133" type="line"/>
      <point x="1192" y="1158" type="line"/>
      <point x="1192" y="1292" type="line"/>
      <point x="724" y="1292" type="line"/>
      <point x="724" y="1158" type="line"/>
      <point x="825" y="1134" type="line"/>
      <point x="585" y="711" type="line"/>
      <point x="496" y="711" type="line"/>
      <point x="496" y="1133" type="line"/>
      <point x="607" y="1158" type="line"/>
      <point x="607" y="1292" type="line"/>
      <point x="52" y="1292" type="line"/>
      <point x="52" y="1158" type="line"/>
      <point x="169" y="1133" type="line"/>
      <point x="169" y="147" type="line"/>
      <point x="52" y="126" type="line"/>
      <point x="52" y="0" type="line"/>
      <point x="643" y="0" type="line"/>
      <point x="643" y="124" type="line"/>
      <point x="496" y="147" type="line"/>
      <point x="496" y="599" type="line"/>
      <point x="537" y="599" type="line" smooth="yes"/>
      <point x="722" y="599"/>
      <point x="746" y="0"/>
      <point x="882" y="0" type="curve"/>
      <point x="1220" y="0" type="line"/>
      <point x="1220" y="126" type="line"/>
      <point x="1162" y="147" type="line" smooth="yes"/>
      <point x="1080" y="176"/>
      <point x="1020" y="662"/>
    </contour>
  </outline>
</glyph>
<glyph name="komide-cy.sc" format="1">
  <advance width="1142"/>
  <outline>
    <contour>
      <point x="795" y="0" type="curve"/>
      <point x="1092" y="0" type="line"/>
      <point x="1092" y="126" type="line"/>
      <point x="974" y="145" type="line"/>
      <point x="974" y="1134" type="line"/>
      <point x="1091" y="1163" type="line"/>
      <point x="1091" y="1292" type="line"/>
      <point x="458" y="1292" type="line"/>
      <point x="458" y="1163" type="line"/>
      <point x="648" y="1134" type="line"/>
      <point x="648" y="773" type="line"/>
      <point x="615" y="779"/>
      <point x="530" y="789"/>
      <point x="452" y="789" type="curve" smooth="yes"/>
      <point x="166" y="789"/>
      <point x="29" y="607"/>
      <point x="29" y="372" type="curve" smooth="yes"/>
      <point x="29" y="121"/>
      <point x="199" y="-18"/>
      <point x="441" y="-18" type="curve" smooth="yes"/>
      <point x="574" y="-18"/>
      <point x="663" y="-2"/>
    </contour>
    <contour>
      <point x="648" y="648" type="curve"/>
      <point x="648" y="133" type="line"/>
      <point x="623" y="125"/>
      <point x="591" y="119"/>
      <point x="556" y="119" type="curve" smooth="yes"/>
      <point x="416" y="119"/>
      <point x="375" y="241"/>
      <point x="375" y="373" type="curve" smooth="yes"/>
      <point x="375" y="551"/>
      <point x="424" y="655"/>
      <point x="538" y="655" type="curve" smooth="yes"/>
      <point x="591" y="655"/>
      <point x="614" y="655"/>
    </contour>
  </outline>
</glyph>
<glyph name="komidzje-cy.sc" format="1">
  <advance width="1191"/>
  <outline>
    <contour>
      <point x="408" y="747" type="curve" smooth="yes"/>
      <point x="322" y="747" type="line"/>
      <point x="322" y="604" type="line"/>
      <point x="420" y="604" type="line" smooth="yes"/>
      <point x="588" y="604"/>
      <point x="623" y="465"/>
      <point x="623" y="357" type="curve" smooth="yes"/>
      <point x="623" y="226"/>
      <point x="568" y="137"/>
      <point x="486" y="139" type="curve"/>
      <point x="486" y="0" type="line"/>
      <point x="916" y="0" type="line"/>
      <point x="925" y="-39"/>
      <point x="954" y="-248"/>
      <point x="957" y="-370" type="curve"/>
      <point x="1117" y="-370" type="line"/>
      <point x="1128" y="-278"/>
      <point x="1163" y="-12"/>
      <point x="1163" y="155" type="curve"/>
      <point x="930" y="155" type="line"/>
      <point x="954" y="178"/>
      <point x="996" y="241"/>
      <point x="996" y="348" type="curve" smooth="yes"/>
      <point x="996" y="534"/>
      <point x="859" y="675"/>
      <point x="654" y="682" type="curve"/>
      <point x="801" y="711"/>
      <point x="928" y="810"/>
      <point x="928" y="1010" type="curve" smooth="yes"/>
      <point x="928" y="1210"/>
      <point x="769" y="1306"/>
      <point x="466" y="1306" type="curve" smooth="yes"/>
      <point x="343" y="1306"/>
      <point x="138" y="1260"/>
      <point x="70" y="1256" type="curve"/>
      <point x="100" y="954" type="line"/>
      <point x="277" y="954" type="line"/>
      <point x="313" y="1133" type="line"/>
      <point x="322" y="1157"/>
      <point x="351" y="1183"/>
      <point x="428" y="1183" type="curve" smooth="yes"/>
      <point x="527" y="1183"/>
      <point x="585" y="1130"/>
      <point x="584" y="998" type="curve"/>
      <point x="584" y="795"/>
      <point x="492" y="747"/>
    </contour>
  </outline>
</glyph>
<glyph name="komilje-cy.sc" format="1">
  <advance width="1886"/>
  <outline>
    <contour>
      <point x="510" y="-144" type="move" name="mark0"/>
    </contour>
    <contour>
      <point x="1768" y="296" type="curve" smooth="yes"/>
      <point x="1768" y="580" type="line"/>
      <point x="1878" y="608" type="line"/>
      <point x="1878" y="738" type="line"/>
      <point x="1321" y="738" type="line"/>
      <point x="1321" y="608" type="line"/>
      <point x="1440" y="580" type="line"/>
      <point x="1440" y="298" type="line" smooth="yes"/>
      <point x="1440" y="188"/>
      <point x="1396" y="118"/>
      <point x="1278" y="118" type="curve" smooth="yes"/>
      <point x="1153" y="118"/>
      <point x="1106" y="180"/>
      <point x="1106" y="300" type="curve" smooth="yes"/>
      <point x="1106" y="1132" type="line"/>
      <point x="1256" y="1158" type="line"/>
      <point x="1256" y="1292" type="line"/>
      <point x="152" y="1292" type="line"/>
      <point x="152" y="1158" type="line"/>
      <point x="360" y="1132" type="line"/>
      <point x="360" y="1024" type="line" smooth="yes"/>
      <point x="360" y="590"/>
      <point x="318" y="358"/>
      <point x="270" y="244" type="curve"/>
      <point x="242" y="184"/>
      <point x="216" y="166"/>
      <point x="170" y="166" type="curve" smooth="yes"/>
      <point x="114" y="166"/>
      <point x="85" y="170"/>
      <point x="43" y="174" type="curve"/>
      <point x="62" y="0" type="line"/>
      <point x="97" y="-8"/>
      <point x="144" y="-12"/>
      <point x="199" y="-12" type="curve" smooth="yes"/>
      <point x="290" y="-12"/>
      <point x="346" y="40"/>
      <point x="389" y="132" type="curve" smooth="yes"/>
      <point x="469" y="306"/>
      <point x="503" y="674"/>
      <point x="503" y="1020" type="curve" smooth="yes"/>
      <point x="503" y="1132" type="line"/>
      <point x="780" y="1132" type="line"/>
      <point x="780" y="308" type="line" smooth="yes"/>
      <point x="780" y="98"/>
      <point x="913" y="-14"/>
      <point x="1267" y="-14" type="curve" smooth="yes"/>
      <point x="1554" y="-14"/>
      <point x="1768" y="82"/>
    </contour>
  </outline>
</glyph>
<glyph name="pe-cy.sc" format="1">
  <advance width="1346"/>
  <outline>
    <contour>
      <point x="872" y="0" type="move" name="bottomright"/>
    </contour>
    <contour>
      <point x="49" y="1292" type="line"/>
      <point x="49" y="1158" type="line"/>
      <point x="169" y="1133" type="line"/>
      <point x="169" y="145" type="line"/>
      <point x="51" y="126" type="line"/>
      <point x="51" y="0" type="line"/>
      <point x="612" y="0" type="line"/>
      <point x="612" y="126" type="line"/>
      <point x="496" y="145" type="line"/>
      <point x="496" y="1153" type="line"/>
      <point x="850" y="1153" type="line"/>
      <point x="850" y="145" type="line"/>
      <point x="740" y="126" type="line"/>
      <point x="740" y="0" type="line"/>
      <point x="1301" y="0" type="line"/>
      <point x="1301" y="126" type="line"/>
      <point x="1175" y="147" type="line"/>
      <point x="1175" y="1134" type="line"/>
      <point x="1295" y="1160" type="line"/>
      <point x="1295" y="1292" type="line"/>
    </contour>
  </outline>
</glyph>
<glyph name="pedescender-cy.sc" format="1">
  <advance width="1380"/>
  <outline>
    <contour>
      <point x="1354" y="147" type="curve"/>
      <point x="1175" y="147" type="line"/>
      <point x="1175" y="1134" type="line"/>
      <point x="1295" y="1160" type="line"/>
      <point x="1295" y="1292" type="line"/>
      <point x="49" y="1292" type="line"/>
      <point x="49" y="1158" type="line"/>
      <point x="169" y="1133" type="line"/>
      <point x="169" y="145" type="line"/>
      <point x="51" y="126" type="line"/>
      <point x="51" y="0" type="line"/>
      <point x="612" y="0" type="line"/>
      <point x="612" y="126" type="line"/>
      <point x="496" y="145" type="line"/>
      <point x="496" y="1153" type="line"/>
      <point x="850" y="1153" type="line"/>
      <point x="850" y="145" type="line"/>
      <point x="740" y="126" type="line"/>
      <point x="740" y="0" type="line"/>
      <point x="1085" y="0" type="line"/>
      <point x="1109" y="-54"/>
      <point x="1144" y="-308"/>
      <point x="1145" y="-366" type="curve"/>
      <point x="1313" y="-366" type="line"/>
      <point x="1320" y="-334"/>
      <point x="1354" y="12"/>
    </contour>
  </outline>
</glyph>
<glyph name="pemiddlehook-cy.sc" format="1">
  <advance width="1895"/>
  <outline>
    <contour>
      <point x="639" y="-144" type="move" name="mark0"/>
    </contour>
    <contour>
      <point x="1175" y="683" type="curve"/>
      <point x="1175" y="1134" type="line"/>
      <point x="1295" y="1160" type="line"/>
      <point x="1295" y="1292" type="line"/>
      <point x="49" y="1292" type="line"/>
      <point x="49" y="1158" type="line"/>
      <point x="169" y="1133" type="line"/>
      <point x="169" y="145" type="line"/>
      <point x="51" y="126" type="line"/>
      <point x="51" y="0" type="line"/>
      <point x="612" y="0" type="line"/>
      <point x="612" y="126" type="line"/>
      <point x="496" y="145" type="line"/>
      <point x="496" y="1153" type="line"/>
      <point x="850" y="1153" type="line"/>
      <point x="850" y="145" type="line"/>
      <point x="740" y="126" type="line"/>
      <point x="740" y="0" type="line"/>
      <point x="1301" y="0" type="line"/>
      <point x="1301" y="126" type="line"/>
      <point x="1175" y="147" type="line"/>
      <point x="1175" y="533" type="line"/>
      <point x="1207" y="563"/>
      <point x="1272" y="590"/>
      <point x="1354" y="590" type="curve" smooth="yes"/>
      <point x="1481" y="590"/>
      <point x="1528" y="492"/>
      <point x="1528" y="245" type="curve" smooth="yes"/>
      <point x="1528" y="-53"/>
      <point x="1464" y="-207"/>
      <point x="1345" y="-207" type="curve" smooth="yes"/>
      <point x="1256" y="-207"/>
      <point x="1228" y="-196"/>
      <point x="1209" y="-188" type="curve"/>
      <point x="1223" y="-329" type="line"/>
      <point x="1249" y="-340"/>
      <point x="1305" y="-361"/>
      <point x="1393" y="-361" type="curve" smooth="yes"/>
      <point x="1665" y="-361"/>
      <point x="1854" y="-119"/>
      <point x="1854" y="291" type="curve" smooth="yes"/>
      <point x="1854" y="644"/>
      <point x="1689" y="751"/>
      <point x="1430" y="751" type="curve" smooth="yes"/>
      <point x="1344" y="751"/>
      <point x="1216" y="709"/>
    </contour>
  </outline>
</glyph>
<glyph name="sha-cy.sc" format="1">
  <advance width="1943"/>
  <outline>
    <contour>
      <point x="602" y="-144" type="move" name="mark0"/>
    </contour>
    <contour>
      <point x="51" y="1292" type="line"/>
      <point x="51" y="1158" type="line"/>
      <point x="169" y="1134" type="line"/>
      <point x="169" y="147" type="line"/>
      <point x="46" y="126" type="line"/>
      <point x="46" y="0" type="line"/>
      <point x="1897" y="0" type="line"/>
      <point x="1897" y="126" type="line"/>
      <point x="1773" y="145" type="line"/>
      <point x="1773" y="1134" type="line"/>
      <point x="1892" y="1158" type="line"/>
      <point x="1892" y="1292" type="line"/>
      <point x="1338" y="1292" type="line"/>
      <point x="1338" y="1158" type="line"/>
      <point x="1448" y="1133" type="line"/>
      <point x="1448" y="145" type="line"/>
      <point x="1137" y="145" type="line"/>
      <point x="1137" y="1134" type="line"/>
      <point x="1251" y="1158" type="line"/>
      <point x="1251" y="1292" type="line"/>
      <point x="697" y="1292" type="line"/>
      <point x="697" y="1158" type="line"/>
      <point x="811" y="1134" type="line"/>
      <point x="811" y="145" type="line"/>
      <point x="496" y="145" type="line"/>
      <point x="496" y="1134" type="line"/>
      <point x="608" y="1158" type="line"/>
      <point x="608" y="1292" type="line"/>
    </contour>
  </outline>
</glyph>
<glyph name="shcha-cy.sc" format="1">
  <advance width="1989"/>
  <outline>
    <contour>
      <point x="1964" y="147" type="curve"/>
      <point x="1773" y="147" type="line"/>
      <point x="1773" y="1134" type="line"/>
      <point x="1892" y="1158" type="line"/>
      <point x="1892" y="1292" type="line"/>
      <point x="1338" y="1292" type="line"/>
      <point x="1338" y="1158" type="line"/>
      <point x="1448" y="1133" type="line"/>
      <point x="1448" y="145" type="line"/>
      <point x="1137" y="145" type="line"/>
      <point x="1137" y="1134" type="line"/>
      <point x="1251" y="1158" type="line"/>
      <point x="1251" y="1292" type="line"/>
      <point x="697" y="1292" type="line"/>
      <point x="697" y="1158" type="line"/>
      <point x="811" y="1134" type="line"/>
      <point x="811" y="145" type="line"/>
      <point x="496" y="145" type="line"/>
      <point x="496" y="1134" type="line"/>
      <point x="608" y="1158" type="line"/>
      <point x="608" y="1292" type="line"/>
      <point x="51" y="1292" type="line"/>
      <point x="51" y="1158" type="line"/>
      <point x="169" y="1134" type="line"/>
      <point x="169" y="147" type="line"/>
      <point x="46" y="126" type="line"/>
      <point x="46" y="0" type="line"/>
      <point x="1695" y="0" type="line"/>
      <point x="1720" y="-51"/>
      <point x="1755" y="-306"/>
      <point x="1756" y="-366" type="curve"/>
      <point x="1923" y="-366" type="line"/>
      <point x="1931" y="-326"/>
      <point x="1963" y="8"/>
    </contour>
  </outline>
</glyph>
<glyph name="softsign-cy.sc" format="1">
  <advance width="1145"/>
  <outline>
    <contour>
      <point x="496" y="771" type="curve"/>
      <point x="496" y="1134" type="line"/>
      <point x="672" y="1162" type="line"/>
      <point x="672" y="1292" type="line"/>
      <point x="52" y="1292" type="line"/>
      <point x="52" y="1162" type="line"/>
      <point x="168" y="1136" type="line"/>
      <point x="168" y="145" type="line"/>
      <point x="50" y="126" type="line"/>
      <point x="50" y="0" type="line"/>
      <point x="302" y="0" type="line"/>
      <point x="458" y="0"/>
      <point x="556" y="-14"/>
      <point x="679" y="-14" type="curve" smooth="yes"/>
      <point x="918" y="-14"/>
      <point x="1118" y="143"/>
      <point x="1118" y="402" type="curve" smooth="yes"/>
      <point x="1118" y="632"/>
      <point x="988" y="777"/>
      <point x="704" y="777" type="curve" smooth="yes"/>
      <point x="675" y="777"/>
      <point x="507" y="772"/>
    </contour>
    <contour>
      <point x="496" y="131" type="curve"/>
      <point x="496" y="638" type="line"/>
      <point x="502" y="639"/>
      <point x="592" y="642"/>
      <point x="606" y="642" type="curve" smooth="yes"/>
      <point x="730" y="642"/>
      <point x="781" y="561"/>
      <point x="781" y="386" type="curve" smooth="yes"/>
      <point x="781" y="253"/>
      <point x="745" y="119"/>
      <point x="587" y="119" type="curve" smooth="yes"/>
      <point x="551" y="119"/>
      <point x="519" y="123"/>
    </contour>
  </outline>
</glyph>
<glyph name="tse-cy.sc" format="1">
  <advance width="1378"/>
  <outline>
    <contour>
      <point x="1352" y="147" type="curve"/>
      <point x="1174" y="147" type="line"/>
      <point x="1174" y="1134" type="line"/>
      <point x="1292" y="1158" type="line"/>
      <point x="1292" y="1292" type="line"/>
      <point x="732" y="1292" type="line"/>
      <point x="732" y="1158" type="line"/>
      <point x="848" y="1134" type="line"/>
      <point x="848" y="133" type="line"/>
      <point x="496" y="133" type="line"/>
      <point x="496" y="1133" type="line"/>
      <point x="630" y="1158" type="line"/>
      <point x="630" y="1292" type="line"/>
      <point x="51" y="1292" type="line"/>
      <point x="51" y="1158" type="line"/>
      <point x="169" y="1134" type="line"/>
      <point x="169" y="147" type="line"/>
      <point x="46" y="127" type="line"/>
      <point x="46" y="0" type="line"/>
      <point x="1084" y="0" type="line"/>
      <point x="1109" y="-54"/>
      <point x="1142" y="-303"/>
      <point x="1144" y="-366" type="curve"/>
      <point x="1312" y="-366" type="line"/>
      <point x="1320" y="-335"/>
      <point x="1352" y="14"/>
    </contour>
  </outline>
</glyph>
<glyph name="u-cy.sc" format="1">
  <advance width="1148"/>
  <outline>
    <contour>
      <point x="586" y="1286" type="move" name="top"/>
    </contour>
    <contour>
      <point x="752" y="280" type="curve"/>
      <point x="1046" y="1132" type="line"/>
      <point x="1131" y="1158" type="line"/>
      <point x="1131" y="1292" type="line"/>
      <point x="752" y="1292" type="line"/>
      <point x="752" y="1158" type="line"/>
      <point x="861" y="1134" type="line"/>
      <point x="713" y="638" type="line"/>
      <point x="674" y="504" type="line"/>
      <point x="632" y="636" type="line"/>
      <point x="463" y="1132" type="line"/>
      <point x="595" y="1158" type="line"/>
      <point x="595" y="1292" type="line"/>
      <point x="17" y="1292" type="line"/>
      <point x="17" y="1158" type="line"/>
      <point x="105" y="1134" type="line"/>
      <point x="461" y="266" type="line"/>
      <point x="453" y="198"/>
      <point x="423" y="180"/>
      <point x="317" y="180" type="curve" smooth="yes"/>
      <point x="276" y="180"/>
      <point x="234" y="180"/>
      <point x="195" y="180" type="curve"/>
      <point x="195" y="12" type="line"/>
      <point x="236" y="-4"/>
      <point x="332" y="-20"/>
      <point x="411" y="-20" type="curve" smooth="yes"/>
      <point x="620" y="-20"/>
      <point x="691" y="136"/>
    </contour>
  </outline>
</glyph>
<glyph name="ushort-cy.sc" format="1">
  <advance width="1148"/>
  <outline>
    <contour>
      <point x="437" y="1838" type="curve" smooth="yes"/>
      <point x="214" y="1838" type="line"/>
      <point x="214" y="1821"/>
      <point x="212" y="1805"/>
      <point x="212" y="1788" type="curve" smooth="yes"/>
      <point x="212" y="1592"/>
      <point x="360" y="1456"/>
      <point x="584" y="1456" type="curve" smooth="yes"/>
      <point x="819" y="1456"/>
      <point x="956" y="1591"/>
      <point x="956" y="1788" type="curve" smooth="yes"/>
      <point x="956" y="1799"/>
      <point x="956" y="1827"/>
      <point x="954" y="1838" type="curve"/>
      <point x="731" y="1838" type="line" smooth="yes"/>
      <point x="706" y="1838"/>
      <point x="702" y="1784"/>
      <point x="702" y="1749" type="curve" smooth="yes"/>
      <point x="702" y="1667"/>
      <point x="659" y="1582"/>
      <point x="586" y="1582" type="curve" smooth="yes"/>
      <point x="509" y="1582"/>
      <point x="465" y="1667"/>
      <point x="465" y="1749" type="curve" smooth="yes"/>
      <point x="465" y="1784"/>
      <point x="462" y="1838"/>
    </contour>
    <contour>
      <point x="752" y="280" type="curve"/>
      <point x="1046" y="1132" type="line"/>
      <point x="1131" y="1158" type="line"/>
      <point x="1131" y="1292" type="line"/>
      <point x="752" y="1292" type="line"/>
      <point x="752" y="1158" type="line"/>
      <point x="861" y="1134" type="line"/>
      <point x="713" y="638" type="line"/>
      <point x="674" y="504" type="line"/>
      <point x="632" y="636" type="line"/>
      <point x="463" y="1132" type="line"/>
      <point x="595" y="1158" type="line"/>
      <point x="595" y="1292" type="line"/>
      <point x="17" y="1292" type="line"/>
      <point x="17" y="1158" type="line"/>
      <point x="105" y="1134" type="line"/>
      <point x="461" y="266" type="line"/>
      <point x="453" y="198"/>
      <point x="423" y="180"/>
      <point x="317" y="180" type="curve" smooth="yes"/>
      <point x="276" y="180"/>
      <point x="234" y="180"/>
      <point x="195" y="180" type="curve"/>
      <point x="195" y="12" type="line"/>
      <point x="236" y="-4"/>
      <point x="332" y="-20"/>
      <point x="411" y="-20" type="curve" smooth="yes"/>
      <point x="620" y="-20"/>
      <point x="691" y="136"/>
    </contour>
  </outline>
</glyph>
<glyph name="yat-cy.sc" format="1">
  <advance width="1373"/>
  <outline>
    <contour>
      <point x="738" y="710" type="curve"/>
      <point x="738" y="997" type="line"/>
      <point x="948" y="974" type="line"/>
      <point x="996" y="859" type="line"/>
      <point x="1170" y="859" type="line"/>
      <point x="1140" y="1135" type="line"/>
      <point x="738" y="1135" type="line"/>
      <point x="738" y="1292" type="line"/>
      <point x="879" y="1320" type="line"/>
      <point x="879" y="1446" type="line"/>
      <point x="284" y="1446" type="line"/>
      <point x="284" y="1320" type="line"/>
      <point x="411" y="1295" type="line"/>
      <point x="411" y="1135" type="line"/>
      <point x="26" y="1135" type="line"/>
      <point x="2" y="859" type="line"/>
      <point x="146" y="859" type="line"/>
      <point x="197" y="974" type="line"/>
      <point x="411" y="997" type="line"/>
      <point x="411" y="145" type="line"/>
      <point x="251" y="126" type="line"/>
      <point x="251" y="0" type="line"/>
      <point x="598" y="0" type="line" smooth="yes"/>
      <point x="659" y="0"/>
      <point x="864" y="-13"/>
      <point x="894" y="-13" type="curve" smooth="yes"/>
      <point x="1178" y="-13"/>
      <point x="1346" y="128"/>
      <point x="1346" y="385" type="curve" smooth="yes"/>
      <point x="1346" y="583"/>
      <point x="1223" y="732"/>
      <point x="945" y="732" type="curve" smooth="yes"/>
      <point x="835" y="732"/>
      <point x="771" y="720"/>
    </contour>
    <contour>
      <point x="738" y="123" type="curve"/>
      <point x="738" y="588" type="line"/>
      <point x="762" y="596"/>
      <point x="803" y="600"/>
      <point x="846" y="600" type="curve" smooth="yes"/>
      <point x="976" y="600"/>
      <point x="1022" y="494"/>
      <point x="1022" y="362" type="curve" smooth="yes"/>
      <point x="1022" y="224"/>
      <point x="959" y="115"/>
      <point x="803" y="115" type="curve" smooth="yes"/>
      <point x="772" y="115"/>
      <point x="757" y="114"/>
    </contour>
  </outline>
</glyph>
<glyph name="zedieresis-cy.sc" format="1">
  <advance width="1046"/>
  <outline>
    <contour>
      <point x="730" y="1462" type="curve"/>
      <point x="853" y="1462"/>
      <point x="888" y="1544"/>
      <point x="888" y="1649" type="curve" smooth="yes"/>
      <point x="888" y="1732"/>
      <point x="849" y="1807"/>
      <point x="747" y="1807" type="curve" smooth="yes"/>
      <point x="639" y="1807"/>
      <point x="594" y="1724"/>
      <point x="594" y="1620" type="curve" smooth="yes"/>
      <point x="594" y="1544"/>
      <point x="637" y="1462"/>
    </contour>
    <contour>
      <point x="298" y="1462" type="curve" smooth="yes"/>
      <point x="420" y="1462"/>
      <point x="456" y="1544"/>
      <point x="456" y="1649" type="curve" smooth="yes"/>
      <point x="456" y="1732"/>
      <point x="418" y="1807"/>
      <point x="315" y="1807" type="curve"/>
      <point x="207" y="1807"/>
      <point x="162" y="1724"/>
      <point x="162" y="1620" type="curve" smooth="yes"/>
      <point x="162" y="1535"/>
      <point x="207" y="1462"/>
    </contour>
    <contour>
      <point x="83" y="1256" type="curve"/>
      <point x="113" y="954" type="line"/>
      <point x="289" y="954" type="line"/>
      <point x="326" y="1133" type="line"/>
      <point x="336" y="1157"/>
      <point x="372" y="1183"/>
      <point x="452" y="1183" type="curve" smooth="yes"/>
      <point x="547" y="1183"/>
      <point x="621" y="1130"/>
      <point x="622" y="998" type="curve" smooth="yes"/>
      <point x="622" y="812"/>
      <point x="535" y="747"/>
      <point x="429" y="747" type="curve" smooth="yes"/>
      <point x="345" y="747" type="line"/>
      <point x="345" y="604" type="line"/>
      <point x="443" y="604" type="line" smooth="yes"/>
      <point x="588" y="604"/>
      <point x="624" y="483"/>
      <point x="624" y="377" type="curve" smooth="yes"/>
      <point x="624" y="217"/>
      <point x="579" y="109"/>
      <point x="470" y="109" type="curve" smooth="yes"/>
      <point x="396" y="109"/>
      <point x="351" y="134"/>
      <point x="329" y="160" type="curve"/>
      <point x="272" y="412" type="line"/>
      <point x="112" y="412" type="line"/>
      <point x="70" y="63" type="line"/>
      <point x="153" y="56"/>
      <point x="253" y="-10"/>
      <point x="455" y="-10" type="curve" smooth="yes"/>
      <point x="876" y="-10"/>
      <point x="996" y="150"/>
      <point x="996" y="393" type="curve" smooth="yes"/>
      <point x="996" y="561"/>
      <point x="883" y="673"/>
      <point x="676" y="682" type="curve"/>
      <point x="822" y="712"/>
      <point x="965" y="811"/>
      <point x="965" y="1010" type="curve" smooth="yes"/>
      <point x="965" y="1210"/>
      <point x="791" y="1306"/>
      <point x="487" y="1306" type="curve" smooth="yes"/>
      <point x="365" y="1306"/>
      <point x="151" y="1260"/>
    </contour>
  </outline>
</glyph>
<glyph name="zhebreve-cy.sc" format="1">
  <advance width="1758"/>
  <outline>
    <contour>
      <point x="730" y="1839" type="curve" smooth="yes"/>
      <point x="507" y="1839" type="line"/>
      <point x="507" y="1822"/>
      <point x="505" y="1806"/>
      <point x="505" y="1789" type="curve" smooth="yes"/>
      <point x="505" y="1593"/>
      <point x="653" y="1457"/>
      <point x="877" y="1457" type="curve" smooth="yes"/>
      <point x="1112" y="1457"/>
      <point x="1249" y="1592"/>
      <point x="1249" y="1789" type="curve" smooth="yes"/>
      <point x="1249" y="1800"/>
      <point x="1249" y="1828"/>
      <point x="1247" y="1839" type="curve"/>
      <point x="1024" y="1839" type="line" smooth="yes"/>
      <point x="999" y="1839"/>
      <point x="995" y="1785"/>
      <point x="995" y="1750" type="curve" smooth="yes"/>
      <point x="995" y="1668"/>
      <point x="952" y="1583"/>
      <point x="879" y="1583" type="curve" smooth="yes"/>
      <point x="802" y="1583"/>
      <point x="758" y="1668"/>
      <point x="758" y="1750" type="curve" smooth="yes"/>
      <point x="758" y="1785"/>
      <point x="755" y="1839"/>
    </contour>
    <contour>
      <point x="1310" y="705" type="curve"/>
      <point x="1589" y="1133" type="line"/>
      <point x="1732" y="1158" type="line"/>
      <point x="1732" y="1292" type="line"/>
      <point x="1265" y="1292" type="line"/>
      <point x="1265" y="1158" type="line"/>
      <point x="1366" y="1134" type="line"/>
      <point x="1131" y="711" type="line"/>
      <point x="1037" y="711" type="line"/>
      <point x="1037" y="1134" type="line"/>
      <point x="1167" y="1158" type="line"/>
      <point x="1167" y="1292" type="line"/>
      <point x="593" y="1292" type="line"/>
      <point x="593" y="1158" type="line"/>
      <point x="723" y="1134" type="line"/>
      <point x="723" y="711" type="line"/>
      <point x="626" y="711" type="line"/>
      <point x="391" y="1134" type="line"/>
      <point x="493" y="1158" type="line"/>
      <point x="493" y="1292" type="line"/>
      <point x="31" y="1292" type="line"/>
      <point x="31" y="1158" type="line"/>
      <point x="168" y="1133" type="line"/>
      <point x="448" y="705" type="line"/>
      <point x="199" y="640"/>
      <point x="134" y="178"/>
      <point x="53" y="147" type="curve" smooth="yes"/>
      <point x="-1" y="126" type="line"/>
      <point x="-1" y="0" type="line"/>
      <point x="321" y="0" type="line" smooth="yes"/>
      <point x="461" y="0"/>
      <point x="506" y="599"/>
      <point x="690" y="599" type="curve" smooth="yes"/>
      <point x="723" y="599" type="line"/>
      <point x="723" y="147" type="line"/>
      <point x="583" y="126" type="line"/>
      <point x="583" y="0" type="line"/>
      <point x="1182" y="0" type="line"/>
      <point x="1182" y="124" type="line"/>
      <point x="1037" y="147" type="line"/>
      <point x="1037" y="599" type="line"/>
      <point x="1068" y="599" type="line" smooth="yes"/>
      <point x="1253" y="599"/>
      <point x="1288" y="0"/>
      <point x="1424" y="0" type="curve"/>
      <point x="1761" y="0" type="line"/>
      <point x="1761" y="126" type="line"/>
      <point x="1702" y="147" type="line" smooth="yes"/>
      <point x="1621" y="178"/>
      <point x="1558" y="640"/>
    </contour>
  </outline>
</glyph>
<glyph name="zhedescender-cy.sc" format="1">
  <advance width="1799"/>
  <outline>
    <contour>
      <point x="1310" y="704" type="curve"/>
      <point x="1589" y="1133" type="line"/>
      <point x="1732" y="1158" type="line"/>
      <point x="1732" y="1292" type="line"/>
      <point x="1265" y="1292" type="line"/>
      <point x="1265" y="1158" type="line"/>
      <point x="1366" y="1134" type="line"/>
      <point x="1131" y="711" type="line"/>
      <point x="1037" y="711" type="line"/>
      <point x="1037" y="1134" type="line"/>
      <point x="1167" y="1158" type="line"/>
      <point x="1167" y="1292" type="line"/>
      <point x="593" y="1292" type="line"/>
      <point x="593" y="1158" type="line"/>
      <point x="723" y="1134" type="line"/>
      <point x="723" y="711" type="line"/>
      <point x="626" y="711" type="line"/>
      <point x="391" y="1134" type="line"/>
      <point x="493" y="1158" type="line"/>
      <point x="493" y="1292" type="line"/>
      <point x="31" y="1292" type="line"/>
      <point x="31" y="1158" type="line"/>
      <point x="168" y="1133" type="line"/>
      <point x="448" y="705" type="line"/>
      <point x="199" y="640"/>
      <point x="144" y="179"/>
      <point x="65" y="147" type="curve" smooth="yes"/>
      <point x="-1" y="126" type="line"/>
      <point x="-1" y="0" type="line"/>
      <point x="332" y="0" type="line" smooth="yes"/>
      <point x="473" y="0"/>
      <point x="506" y="599"/>
      <point x="690" y="599" type="curve" smooth="yes"/>
      <point x="723" y="599" type="line"/>
      <point x="723" y="147" type="line"/>
      <point x="583" y="126" type="line"/>
      <point x="583" y="0" type="line"/>
      <point x="1182" y="0" type="line"/>
      <point x="1182" y="124" type="line"/>
      <point x="1037" y="147" type="line"/>
      <point x="1037" y="599" type="line"/>
      <point x="1068" y="599" type="line" smooth="yes"/>
      <point x="1253" y="599"/>
      <point x="1287" y="0"/>
      <point x="1425" y="0" type="curve" smooth="yes"/>
      <point x="1529" y="0" type="line"/>
      <point x="1557" y="-52"/>
      <point x="1590" y="-303"/>
      <point x="1590" y="-366" type="curve"/>
      <point x="1758" y="-366" type="line"/>
      <point x="1766" y="-332"/>
      <point x="1798" y="14"/>
      <point x="1798" y="147" type="curve"/>
      <point x="1692" y="147" type="line"/>
      <point x="1614" y="179"/>
      <point x="1559" y="639"/>
    </contour>
  </outline>
</glyph>
<glyph name="zhedieresis-cy.sc" format="1">
  <advance width="1758"/>
  <outline>
    <contour>
      <point x="1085" y="1462" type="curve"/>
      <point x="1208" y="1462"/>
      <point x="1243" y="1544"/>
      <point x="1243" y="1649" type="curve" smooth="yes"/>
      <point x="1243" y="1732"/>
      <point x="1204" y="1807"/>
      <point x="1103" y="1807" type="curve" smooth="yes"/>
      <point x="995" y="1807"/>
      <point x="949" y="1724"/>
      <point x="949" y="1620" type="curve" smooth="yes"/>
      <point x="949" y="1544"/>
      <point x="992" y="1462"/>
    </contour>
    <contour>
      <point x="653" y="1462" type="curve" smooth="yes"/>
      <point x="775" y="1462"/>
      <point x="811" y="1544"/>
      <point x="811" y="1649" type="curve" smooth="yes"/>
      <point x="811" y="1732"/>
      <point x="773" y="1807"/>
      <point x="670" y="1807" type="curve"/>
      <point x="562" y="1807"/>
      <point x="517" y="1724"/>
      <point x="517" y="1620" type="curve" smooth="yes"/>
      <point x="517" y="1535"/>
      <point x="562" y="1462"/>
    </contour>
    <contour>
      <point x="1310" y="705" type="curve"/>
      <point x="1589" y="1133" type="line"/>
      <point x="1732" y="1158" type="line"/>
      <point x="1732" y="1292" type="line"/>
      <point x="1265" y="1292" type="line"/>
      <point x="1265" y="1158" type="line"/>
      <point x="1366" y="1134" type="line"/>
      <point x="1131" y="711" type="line"/>
      <point x="1037" y="711" type="line"/>
      <point x="1037" y="1134" type="line"/>
      <point x="1167" y="1158" type="line"/>
      <point x="1167" y="1292" type="line"/>
      <point x="593" y="1292" type="line"/>
      <point x="593" y="1158" type="line"/>
      <point x="723" y="1134" type="line"/>
      <point x="723" y="711" type="line"/>
      <point x="626" y="711" type="line"/>
      <point x="391" y="1134" type="line"/>
      <point x="493" y="1158" type="line"/>
      <point x="493" y="1292" type="line"/>
      <point x="31" y="1292" type="line"/>
      <point x="31" y="1158" type="line"/>
      <point x="168" y="1133" type="line"/>
      <point x="448" y="705" type="line"/>
      <point x="199" y="640"/>
      <point x="134" y="178"/>
      <point x="53" y="147" type="curve" smooth="yes"/>
      <point x="-1" y="126" type="line"/>
      <point x="-1" y="0" type="line"/>
      <point x="321" y="0" type="line" smooth="yes"/>
      <point x="461" y="0"/>
      <point x="506" y="599"/>
      <point x="690" y="599" type="curve" smooth="yes"/>
      <point x="723" y="599" type="line"/>
      <point x="723" y="147" type="line"/>
      <point x="583" y="126" type="line"/>
      <point x="583" y="0" type="line"/>
      <point x="1182" y="0" type="line"/>
      <point x="1182" y="124" type="line"/>
      <point x="1037" y="147" type="line"/>
      <point x="1037" y="599" type="line"/>
      <point x="1068" y="599" type="line" smooth="yes"/>
      <point x="1253" y="599"/>
      <point x="1288" y="0"/>
      <point x="1424" y="0" type="curve"/>
      <point x="1761" y="0" type="line"/>
      <point x="1761" y="126" type="line"/>
      <point x="1702" y="147" type="line" smooth="yes"/>
      <point x="1621" y="178"/>
      <point x="1558" y="640"/>
    </contour>
  </outline>
</glyph>
